<?xml version="1.0" standalone="no"?>
<!DOCTYPE svg PUBLIC "-//W3C//DTD SVG 20010904//EN"
 "http://www.w3.org/TR/2001/REC-SVG-20010904/DTD/svg10.dtd">
<svg version="1.0" xmlns="http://www.w3.org/2000/svg"
 width="512.000000pt" height="512.000000pt" viewBox="0 0 512.000000 512.000000"
 preserveAspectRatio="xMidYMid meet">

<g transform="translate(0.000000,512.000000) scale(0.100000,-0.100000)"
fill="#000000" stroke="none">
<path d="M0 2560 l0 -2560 2560 0 2560 0 0 2560 0 2560 -2560 0 -2560 0 0
-2560z m1354 1540 c32 -33 1131 -1992 1172 -2090 17 -41 35 -84 39 -95 7 -19
8 -19 18 5 74 178 1132 2110 1189 2173 l35 37 196 0 197 0 0 -1575 0 -1575
-185 0 -185 0 2 1255 c2 689 0 1251 -3 1247 -4 -4 -248 -448 -543 -987 -296
-541 -551 -995 -569 -1013 -38 -40 -94 -56 -169 -49 -80 7 -120 35 -167 115
-21 37 -267 477 -546 977 -279 501 -515 922 -524 937 -15 24 -16 -66 -13
-1228 l3 -1254 -191 0 -190 0 0 1576 0 1575 205 -3 c203 -3 205 -3 229 -28z"/>
</g>
</svg>
